# xmcd
#
# Track frame offsets:
# 150
# 14335
# 32770
# 40330
# 57427
# 71012
# 85250
# 99700
# 118267
# 134487
# 146255
# 163312
# 174930
# 194637
# 205190
# 248327
#
# Disc length: 3424 seconds
#
#
# Revision: 0
# Processed by: cddbd v1.5.2PL0 Copyright (c) Steve Scherf et al.
# Submitted via: FreeRIP 2.951 
#
DISCID=e70d5e10
DTITLE=The Gourds - Bolsa de Agua
DYEAR=2000
DGENRE=Country
TTITLE0=El Paso
TTITLE1=Jesus Christ With Signs Following
TTITLE2=Big Santiago Bust
TTITLE3=Reciepts and Fevers
TTITLE4=Pickles
TTITLE5=O-Rings
TTITLE6=Bugs
TTITLE7=Waterbag
TTITLE8=Hallelujah Shine
TTITLE9=Layin Around the House
TTITLE10=Meat Off The Bone
TTITLE11=Flamenco Cabaret
TTITLE12=Turn My Head Around
TTITLE13=Tearbox
TTITLE14=High Highs and Low Lows
TTITLE15=data
EXTD=
EXTT0=
EXTT1=
EXTT2=
EXTT3=
EXTT4=
EXTT5=
EXTT6=
EXTT7=
EXTT8=
EXTT9=
EXTT10=
EXTT11=
EXTT12=
EXTT13=
EXTT14=
EXTT15=
PLAYORDER=
